<?xml version="1.0" standalone="no"?>
<!DOCTYPE svg PUBLIC "-//W3C//DTD SVG 1.1//EN" "http://www.w3.org/Graphics/SVG/1.1/DTD/svg11.dtd" >
<svg xmlns="http://www.w3.org/2000/svg">
<metadata></metadata>
<defs>
<font id="noto_sans_thairegular" horiz-adv-x="0" >
<font-face units-per-em="2048" ascent="1638" descent="-410" />
<missing-glyph horiz-adv-x="532" />
<glyph unicode=" "  horiz-adv-x="532" />
<glyph unicode="&#x09;" horiz-adv-x="532" />
<glyph unicode="&#xa0;" horiz-adv-x="532" />
<glyph unicode="&#x2bc;" horiz-adv-x="358" d="M319 1462l15 -22q-52 -199 -176 -479h-133q70 285 102 501h192z" />
<glyph unicode="&#x2d7;" horiz-adv-x="479" d="M25 635h430v-123h-430v123z" />
<glyph unicode="&#x303;" d="M-477 1248q-43 0 -84 18.5t-80.5 40t-76 40t-70.5 18.5q-49 0 -74 -28.5t-39 -90.5h-104q12 118 71 185t154 67q45 0 87.5 -18.5t81.5 -40t75 -40t68 -18.5q48 0 72.5 29.5t39.5 89.5h103q-12 -117 -71 -184.5t-153 -67.5z" />
<glyph unicode="&#x331;" d="M-1025 -155h788v-131h-788v131z" />
<glyph unicode="&#xe01;" horiz-adv-x="1264" d="M166 0v393q0 53 12 95t38.5 73.5t68.5 53t102 34.5q-25 21 -61.5 36t-74 25t-70 14.5t-48.5 4.5q4 92 33.5 169t88 132.5t147.5 86t212 30.5q140 0 233.5 -33.5t149.5 -93.5t79.5 -143t23.5 -181v-696h-168v684q0 76 -17 136.5t-54.5 103t-98 65t-148.5 22.5 q-81 0 -137 -17.5t-92 -46t-55 -64.5t-25 -72q40 -6 78 -20t70.5 -32t57.5 -38.5t40 -38.5v-57q-57 -12 -98.5 -30t-67.5 -45.5t-38.5 -66.5t-12.5 -92v-391h-168z" />
<glyph unicode="&#xe02;" horiz-adv-x="1352" d="M337 135h163v391q0 59 11 105.5t33.5 85.5t56.5 71.5t81 63.5q0 26 -10 57t-36.5 58t-72 45t-117.5 18q-67 0 -117 -16t-83 -43.5t-49.5 -65t-16.5 -80.5q19 23 50.5 38.5t68.5 15.5q32 0 61.5 -10t52 -31t35.5 -53t13 -76q0 -42 -14 -73.5t-38 -53t-57.5 -32.5 t-72.5 -11q-57 0 -99 20t-69 56t-40.5 86t-13.5 110q0 68 21.5 129t68.5 107t121 73t178 27t180 -23.5t126 -63.5t74 -94t24 -116q-51 -40 -86 -76t-56.5 -73.5t-30.5 -79.5t-9 -95v-391h108q125 0 184.5 59.5t59.5 194.5v737h168v-772q0 -79 -22 -144.5t-65.5 -112 t-108 -72t-150.5 -25.5h-505v135zM355 709q0 34 -22 54t-57 20q-33 0 -54.5 -20t-21.5 -54q0 -35 21.5 -56t54.5 -21q35 0 57 21t22 56z" />
<glyph unicode="&#xe03;" horiz-adv-x="1352" d="M337 135h163v391q0 41 5.5 82.5t24.5 81.5t55 78.5t97 72.5q0 21 -3.5 46t-14 48.5t-31 42.5t-55.5 27l-144 -127l-145 129q-37 -9 -58.5 -30.5t-33 -48.5t-14.5 -54.5t-3 -48.5q19 23 50.5 38.5t68.5 15.5q32 0 61.5 -10t52 -31t35.5 -53t13 -76q0 -42 -14 -73.5 t-38 -53t-57.5 -32.5t-72.5 -11q-57 0 -99 21t-69 57t-40.5 85t-13.5 105q0 57 13.5 111.5t43 100t75.5 78t110 44.5l135 -123l135 123q79 -10 133 -38.5t87 -69t47 -90.5t14 -104q-59 -40 -95 -78.5t-55.5 -77.5t-25.5 -78t-6 -79v-391h108q125 0 184.5 59.5t59.5 194.5 v737h168v-772q0 -79 -22 -144.5t-65.5 -112t-108 -72t-150.5 -25.5h-505v135zM355 709q0 34 -22 54t-57 20q-33 0 -54.5 -20t-21.5 -54q0 -35 21.5 -56t54.5 -21q35 0 57 21t22 56z" />
<glyph unicode="&#xe04;" horiz-adv-x="1319" d="M510 436q-10 -10 -33.5 -39t-48 -75.5t-43.5 -111t-20 -145.5v-24v-41h-168v119q0 81 -6 143.5t-15.5 113.5t-20.5 93t-20.5 83t-15.5 83.5t-6 93.5q0 94 36 171t104 132t165.5 85t220.5 30q140 0 238 -33.5t160 -93.5t90 -143t28 -181v-696h-168v684q0 76 -21.5 136.5 t-65 103t-109 65t-152.5 22.5q-84 0 -150.5 -19.5t-113 -55.5t-71.5 -87.5t-25 -115.5q0 -46 5 -90t13.5 -88.5t18.5 -90.5t19 -97q24 83 53 155t66.5 125t85 83t109.5 30q97 0 150 -50.5t53 -140.5q0 -91 -52 -140.5t-151 -49.5q-45 0 -82.5 17t-56.5 40zM744 569 q0 45 -26.5 69.5t-70.5 24.5q-41 0 -68 -24.5t-27 -69.5q0 -42 27 -67.5t68 -25.5q44 0 70.5 25.5t26.5 67.5z" />
<glyph unicode="&#xe05;" horiz-adv-x="1319" d="M510 436q-10 -10 -33.5 -38.5t-47.5 -74t-43 -108t-21 -142.5v-73h-168v119q0 81 -6 143.5t-15.5 113.5t-20.5 93t-20.5 83t-15.5 83.5t-6 93.5q0 83 17.5 147.5t58 114.5t107.5 87t165 65l176 -146l176 146q103 -29 169 -67.5t104.5 -91.5t53.5 -123.5t15 -164.5v-696 h-168v684q0 71 -7.5 119t-27 82t-53.5 57.5t-86 44.5l-176 -143l-178 143q-50 -20 -84.5 -43t-55.5 -53t-30.5 -68.5t-9.5 -89.5q0 -95 19 -183.5t38 -178.5q24 83 53 154t66.5 123t85 82t108.5 30q97 0 150 -50.5t53 -140.5q0 -91 -52 -140.5t-151 -49.5q-45 0 -82.5 17 t-56.5 40zM744 569q0 45 -26.5 69.5t-70.5 24.5q-41 0 -68 -24.5t-27 -69.5q0 -42 27 -67.5t68 -25.5q44 0 70.5 25.5t26.5 67.5z" />
<glyph unicode="&#xe06;" horiz-adv-x="1372" d="M355 709q0 34 -22 54t-57 20q-33 0 -54.5 -20t-21.5 -54q0 -35 21.5 -56t54.5 -21q35 0 57 21t22 56zM359 172q0 -43 20.5 -64.5t52.5 -21.5q38 0 53 23.5t15 68.5v113q-74 -11 -107.5 -41.5t-33.5 -77.5zM668 211q0 -57 -11 -100t-35.5 -71.5t-64.5 -43t-99 -14.5 q-108 0 -162 50t-54 140q0 42 14 79t45 66t80 49t119 28v132q0 41 5.5 82.5t24.5 81.5t55 78.5t97 72.5q0 21 -3.5 46t-14 48.5t-31 42.5t-55.5 27l-144 -127l-145 129q-37 -9 -58.5 -30.5t-33 -48.5t-14.5 -54.5t-3 -48.5q19 23 50.5 38.5t68.5 15.5q32 0 61.5 -10t52 -31 t35.5 -53t13 -76q0 -42 -14 -73.5t-38 -53t-57.5 -32.5t-72.5 -11q-57 0 -99 21t-69 57t-40.5 85t-13.5 105q0 57 13.5 111.5t43 100t75.5 78t110 44.5l135 -123l135 123q79 -10 133 -38.5t87 -69t47 -90.5t14 -104q-59 -40 -95 -78.5t-55.5 -77.5t-25.5 -78t-6 -79v-138 q102 -14 194.5 -62.5t157.5 -128.5v929h168v-1126h-168q-31 50 -71 96t-86 83.5t-95.5 63.5t-99.5 36v-68z" />
<glyph unicode="&#xe07;" horiz-adv-x="969" d="M588 756q-90 0 -140.5 49.5t-50.5 140.5q0 90 53 140.5t150 50.5q99 0 152 -50.5t53 -140.5v-694q0 -136 -65.5 -204t-211.5 -68q-76 0 -125 19t-83 61t-59 109t-52 163q-26 95 -44 147.5t-34.5 78t-35 31t-46.5 5.5v143q51 0 89 -5.5t66 -20t49 -39t38.5 -62.5t34 -91 t35.5 -124q25 -94 45 -149.5t39.5 -85t39.5 -38.5t45 -9q51 0 79 27.5t28 95.5v524q-5 -2 -21 -3t-28 -1zM505 946q0 -42 26.5 -67.5t70.5 -25.5q41 0 68 25.5t27 67.5q0 44 -27 69t-68 25q-44 0 -70.5 -25t-26.5 -69z" />
<glyph unicode="&#xe08;" horiz-adv-x="1188" d="M762 -20q-68 0 -113.5 11.5t-78.5 40t-58.5 76t-52.5 119.5l-53 140q-17 -7 -45 -13t-48 -6q-99 0 -150.5 50t-51.5 141q0 89 52.5 139.5t149.5 50.5q47 0 80.5 -13t59.5 -40.5t47.5 -71t44.5 -104.5l96 -254q26 -68 52.5 -95.5t66.5 -27.5q42 0 69 27t27 96v473 q0 63 -20 116t-59.5 91.5t-98.5 60t-137 21.5q-93 0 -187.5 -33t-181.5 -91l-78 124q91 61 200 100t247 39q113 0 202.5 -29.5t152 -84t95.5 -131t33 -171.5v-479q0 -68 -13.5 -119t-44.5 -85t-81 -51t-123 -17zM218 539q0 -43 26.5 -68t70.5 -25q42 0 68.5 25t26.5 68 q0 44 -26.5 69t-68.5 25q-44 0 -70.5 -25t-26.5 -69z" />
<glyph unicode="&#xe09;" horiz-adv-x="1323" d="M194 573q0 -42 26.5 -67.5t70.5 -25.5q41 0 68 25.5t27 67.5q0 44 -27 69t-68 25q-44 0 -70.5 -25t-26.5 -69zM1024 394q70 -8 119 -28t80 -49t45 -66t14 -79q0 -90 -54 -140t-162 -50q-58 0 -98.5 14.5t-65 43t-35.5 71.5t-11 100v68q-50 -10 -101.5 -36t-99 -63.5 t-89.5 -83.5t-72 -96h-168v386q-5 -2 -21 -3t-29 -1q-89 0 -139.5 50t-50.5 141q0 90 53 140t150 50q99 0 152 -50t53 -140v-376q32 40 73.5 72t89 56t98 40t101.5 23v331q0 63 -20 116t-59.5 91.5t-98.5 60t-137 21.5q-93 0 -187.5 -33t-181.5 -91l-78 124q91 61 200 100 t247 39q113 0 202.5 -29.5t152 -84t95.5 -131t33 -171.5v-337zM1165 172q0 47 -33.5 77.5t-107.5 41.5v-113q0 -45 15 -68.5t53 -23.5q32 0 52.5 21.5t20.5 64.5z" />
<glyph unicode="&#xe0a;" horiz-adv-x="1352" d="M337 135h163v391q0 58 11 105t33.5 86t56.5 71.5t81 63.5q0 25 -10 56t-36.5 58t-72 45.5t-117.5 18.5q-67 0 -117 -16t-83 -43.5t-49.5 -65t-16.5 -80.5q19 23 50.5 38.5t68.5 15.5q32 0 61.5 -10.5t52 -31.5t35.5 -53t13 -75q0 -42 -14 -73.5t-38 -53t-57.5 -32.5 t-72.5 -11q-57 0 -99 20t-69 56t-40.5 86t-13.5 110q0 68 21.5 129t68.5 107t121 73t178 27t180 -23.5t126 -63.5t74 -94.5t24 -115.5q-51 -40 -86 -76t-56.5 -73.5t-30.5 -80t-9 -94.5v-391h108q124 0 184 59.5t60 194.5v281q0 66 -24.5 103t-70.5 55v46q29 10 54.5 26.5 t52 44.5t56.5 69t68 100l60 93h188l-61 -90q-41 -60 -73 -104.5t-62.5 -76.5t-64 -53t-76.5 -34q60 -19 90.5 -65t30.5 -106v-324q0 -79 -22 -144.5t-65.5 -112t-108 -72t-150.5 -25.5h-505v135zM355 709q0 34 -22 54t-57 20q-33 0 -54.5 -20t-21.5 -54q0 -35 21.5 -56 t54.5 -21q35 0 57 21t22 56z" />
<glyph unicode="&#xe0b;" horiz-adv-x="1352" d="M1067 849q60 -19 90.5 -65t30.5 -106v-324q0 -79 -22 -144.5t-65.5 -112t-108 -72t-150.5 -25.5h-505v135h163v391q0 41 5.5 82.5t24.5 81.5t55 78t97 73q0 21 -3.5 46t-14 48.5t-31.5 42.5t-55 27l-144 -127l-145 129q-37 -9 -58.5 -30.5t-33 -48.5t-14.5 -54.5 t-3 -48.5q19 23 50.5 38.5t68.5 15.5q32 0 61.5 -10.5t52 -31.5t35.5 -53t13 -75q0 -42 -14 -73.5t-38 -53t-57.5 -32.5t-72.5 -11q-57 0 -99 21t-69 57t-40.5 85t-13.5 105q0 57 13.5 111.5t43 100t75 78t110.5 44.5l135 -123l135 123q79 -10 133 -38.5t87 -69t47 -90.5 t14 -104q-59 -40 -95 -78.5t-55.5 -77.5t-25.5 -78t-6 -79v-391h108q124 0 184 59.5t60 194.5v281q0 66 -24.5 103t-70.5 55v46q29 10 54.5 26.5t52 44.5t56.5 69t68 100l60 93h188l-61 -90q-41 -60 -73 -104.5t-62.5 -76.5t-64 -53t-76.5 -34zM355 709q0 34 -22 54t-57 20 q-33 0 -54.5 -20t-21.5 -54q0 -35 21.5 -56t54.5 -21q35 0 57 21t22 56z" />
<glyph unicode="&#xe0c;" horiz-adv-x="1812" d="M466 172q0 42 -26.5 67t-70.5 25q-42 0 -68.5 -25t-26.5 -67q0 -44 26.5 -69.5t68.5 -25.5q44 0 70.5 25.5t26.5 69.5zM799 172q0 -43 20.5 -64.5t52.5 -21.5q38 0 58 23.5t20 68.5v113q-74 -11 -112.5 -41.5t-38.5 -77.5zM305 811q40 -6 78 -20t70.5 -32t57.5 -38.5 t40 -38.5v-57q-57 -12 -98.5 -30t-67.5 -45.5t-38.5 -66.5t-12.5 -92v-33q5 2 18.5 3t26.5 1q93 0 143.5 -49.5t50.5 -140.5q0 -90 -52.5 -140t-149.5 -50q-99 0 -152 50t-53 140v221q0 53 12 95t38.5 73.5t68.5 53t102 34.5q-25 21 -61.5 36t-74 25t-70 14.5t-48.5 4.5 q4 92 37.5 169t96.5 132.5t154.5 86t209.5 30.5q134 0 227 -33.5t151 -93.5t83.5 -143t25.5 -181v-308q102 -14 189.5 -62.5t152.5 -128.5v929h168v-1126h-168q-31 50 -69.5 96t-82.5 83.5t-92 63.5t-98 36v-68q0 -114 -51.5 -171.5t-168.5 -57.5q-108 0 -162 50t-54 140 q0 42 15.5 79t48.5 66t83.5 49t120.5 28v290q0 76 -18.5 136.5t-57.5 103t-99 65t-142 22.5q-80 0 -137.5 -17.5t-97 -46t-62 -64.5t-31.5 -72z" />
<glyph unicode="&#xe0d;" horiz-adv-x="1792" d="M466 172q0 42 -26.5 67t-70.5 25q-42 0 -68.5 -25t-26.5 -67q0 -44 26.5 -69.5t68.5 -25.5q44 0 70.5 25.5t26.5 69.5zM950 0v684q0 76 -19 136.5t-58 103t-99 65t-143 22.5q-79 0 -136.5 -17.5t-96.5 -46t-61.5 -64.5t-31.5 -72q40 -6 78 -20t70.5 -32t57.5 -38.5 t40 -38.5v-57q-57 -12 -98.5 -30t-67.5 -45.5t-38.5 -66.5t-12.5 -92v-33q5 2 18.5 3t26.5 1q93 0 143.5 -49.5t50.5 -140.5q0 -90 -52.5 -140t-149.5 -50q-99 0 -152 50t-53 140v221q0 53 12 95t38.5 73.5t68.5 53t102 34.5q-25 21 -61.5 36t-74 25t-70 14.5t-48.5 4.5 q4 92 37.5 169t96.5 132.5t154.5 86t209.5 30.5q134 0 227 -33.5t151 -93.5t83.5 -143t25.5 -181v-561h98q125 0 184.5 59.5t59.5 194.5v737h168v-772q0 -79 -22 -144.5t-65.5 -112t-108 -72t-150.5 -25.5h-332zM1169 -476q-62 0 -110.5 15t-81.5 41.5t-50 63.5t-17 81 q0 80 50.5 126t136.5 46q88 0 136.5 -44.5t48.5 -116.5q0 -42 -14.5 -67.5t-29.5 -38.5q50 9 90 30t72 52.5t58 74t48 94.5h145q-39 -79 -83 -144.5t-101 -113t-130 -73.5t-168 -26zM1011 -276q0 -38 23.5 -60.5t62.5 -22.5q36 0 60 22.5t24 60.5q0 39 -24 61.5t-60 22.5 q-39 0 -62.5 -22.5t-23.5 -61.5z" />
<glyph unicode="&#xe0e;" horiz-adv-x="1315" d="M361 811q48 -6 96 -20t89.5 -32t73.5 -38.5t50 -38.5v-57q-58 -12 -99 -30t-67 -45.5t-38.5 -66.5t-12.5 -92v-219q0 -90 -53 -140t-152 -50q-97 0 -150 50t-53 140q0 91 51 140.5t144 49.5q12 0 26 -1t19 -3v35q0 53 12 95t38 73.5t68 53t102 34.5q-31 21 -76 36t-91 25 t-86.5 14.5t-61.5 4.5q4 92 34 169t88.5 132.5t146 86t205.5 30.5q134 0 227 -33.5t151 -93.5t83.5 -143t25.5 -181v-1216h-158q-43 54 -103 109.5t-123 99.5q-46 -76 -108.5 -116t-125.5 -40q-45 0 -80 13t-60 36.5t-38 56t-13 70.5q0 82 49 132t142 50q45 0 91.5 -15 t81.5 -33q8 26 11.5 53.5t5.5 64.5h121q-7 -99 -35 -177q52 -34 97 -71t77 -71v1042q0 76 -19 136.5t-58 103t-99 65t-143 22.5q-79 0 -133 -17.5t-88.5 -46t-53.5 -64.5t-28 -72zM153 172q0 -44 26.5 -69.5t70.5 -25.5q41 0 68 25.5t27 69.5q0 42 -27 67t-68 25 q-44 0 -70.5 -25t-26.5 -67zM532 -208q-32 0 -55.5 -17.5t-23.5 -61.5q0 -41 23.5 -60.5t55.5 -19.5q16 0 34 5.5t36.5 19t36.5 36t34 55.5q-42 21 -78 32t-63 11z" />
<glyph unicode="&#xe0f;" horiz-adv-x="1315" d="M361 811q48 -6 96 -20t89.5 -32t73.5 -38.5t50 -38.5v-57q-58 -12 -99 -30t-67 -45.5t-38.5 -66.5t-12.5 -92v-219q0 -90 -53 -140t-152 -50q-97 0 -150 50t-53 140q0 91 51 140.5t144 49.5q12 0 26 -1t19 -3v35q0 53 12 95t38 73.5t68 53t102 34.5q-31 21 -76 36t-91 25 t-86.5 14.5t-61.5 4.5q4 92 34 169t88.5 132.5t146 86t205.5 30.5q134 0 227 -33.5t151 -93.5t83.5 -143t25.5 -181v-1216h-158q-41 51 -91.5 99.5t-98.5 88.5q-25 -48 -68 -88.5t-100 -68.5q-26 38 -55 72.5t-61 63.5q-54 -62 -115 -97t-134 -35q-36 0 -68.5 11.5t-56.5 34 t-38.5 55.5t-14.5 75q0 81 49 131.5t142 50.5q52 0 106.5 -21.5t102.5 -54.5q70 122 82 289h126q-7 -97 -39 -188.5t-84 -169.5q21 -20 41 -40.5t37 -39.5q32 26 61.5 72.5t51.5 105.5q28 -19 57.5 -42t58 -47.5t54 -48.5t45.5 -45v1041q0 76 -19 136.5t-58 103t-99 65 t-143 22.5q-79 0 -133 -17.5t-88.5 -46t-53.5 -64.5t-28 -72zM153 172q0 -44 26.5 -69.5t70.5 -25.5q41 0 68 25.5t27 69.5q0 42 -27 67t-68 25q-44 0 -70.5 -25t-26.5 -67zM281 -226q-32 0 -55.5 -17.5t-23.5 -61.5q0 -41 23.5 -60.5t55.5 -19.5q36 0 80.5 24.5t80.5 79.5 q-37 26 -79 40.5t-82 14.5z" />
<glyph unicode="&#xe10;" horiz-adv-x="1141" d="M241 411q0 -43 26.5 -68t70.5 -25q42 0 68.5 25t26.5 68q0 44 -26.5 69t-68.5 25q-44 0 -70.5 -25t-26.5 -69zM830 450q0 119 -63 181.5t-198 62.5h-462q0 128 19 211.5t63.5 133t118 69t183.5 19.5h530v-133h-545q-43 0 -80 -10.5t-63 -31t-41 -52t-15 -73.5h326 q107 0 182 -20.5t122 -67t69 -121t22 -181.5v-185q0 -68 -13.5 -119t-44.5 -85t-81 -51t-123 -17q-68 0 -112 11.5t-75.5 39.5t-56.5 75t-56 117l-7 16q-17 -7 -45 -13t-48 -6q-99 0 -150.5 50t-51.5 141q0 89 52.5 139.5t149.5 50.5q52 0 87.5 -16t61 -46t44.5 -72.5 t39 -94.5l53 -142q21 -56 47.5 -86.5t69.5 -30.5q19 0 36 6.5t29.5 20.5t19.5 38t7 58v214zM590 -108q-11 -50 -26 -97.5t-35 -91.5q19 -20 36.5 -42t31.5 -42q19 12 43 38t42 51q47 -19 98.5 -43t99.5 -55v94q-8 -4 -22 -4q-58 0 -86 29.5t-28 83.5t29.5 84.5t98.5 30.5 q63 0 99 -30.5t36 -86.5v-331h-127q-34 30 -78.5 59t-93.5 48q-24 -28 -60.5 -57.5t-70.5 -49.5q-24 34 -47 69.5t-49 65.5q-41 -58 -96 -95t-122 -37q-36 0 -68.5 11.5t-56.5 34t-38.5 55.5t-14.5 75q0 81 49 131.5t142 50.5q45 0 89.5 -17t80.5 -43q16 52 23 111h121z M819 -187q0 -21 12 -33t35 -12q20 0 32.5 12t12.5 33q0 23 -12.5 35t-32.5 12q-47 0 -47 -47zM275 -258q-32 0 -55.5 -17.5t-23.5 -61.5q0 -41 23.5 -60.5t55.5 -19.5t69.5 24t65.5 81q-30 26 -66.5 40t-68.5 14z" />
<glyph unicode="&#xe11;" horiz-adv-x="1633" d="M355 709q0 34 -22 54t-57 20q-33 0 -54.5 -20t-21.5 -54q0 -35 21.5 -56t54.5 -21q35 0 57 21t22 56zM751 0h-251v526q0 41 5.5 82.5t24.5 81.5t55 78.5t97 72.5q0 21 -3.5 46t-14 48.5t-31 42.5t-55.5 27l-144 -127l-145 129q-37 -9 -58.5 -30.5t-33 -48.5t-14.5 -54.5 t-3 -48.5q19 23 50.5 38.5t68.5 15.5q32 0 61.5 -10t52 -31t35.5 -53t13 -76q0 -42 -14 -73.5t-38 -53t-57.5 -32.5t-72.5 -11q-57 0 -99 21t-69 57t-40.5 85t-13.5 105q0 57 13.5 111.5t43 100t75.5 78t110 44.5l135 -123l135 123q79 -10 133 -38.5t87 -69t47 -90.5 t14 -104q-59 -40 -95 -78.5t-55.5 -77.5t-25.5 -78t-6 -79v-376l369 774q30 65 58 108t58 68.5t64.5 36t77.5 10.5q85 0 129.5 -59t44.5 -180v-908h-168v926q0 45 -9.5 65t-26.5 20t-38.5 -29t-56.5 -101z" />
<glyph unicode="&#xe12;" horiz-adv-x="1848" d="M730 589q0 45 -26.5 69.5t-70.5 24.5q-41 0 -68 -24.5t-27 -69.5q0 -42 27 -67.5t68 -25.5q44 0 70.5 25.5t26.5 67.5zM835 172q0 -43 20.5 -64.5t52.5 -21.5q38 0 58 23.5t20 68.5v113q-74 -11 -112.5 -41.5t-38.5 -77.5zM1664 0h-178q-31 50 -68 97.5t-79 86.5 t-88.5 67t-96.5 38v-78q0 -114 -51.5 -171.5t-168.5 -57.5q-108 0 -162 50t-54 140q0 42 15.5 79t48.5 66t83.5 49t120.5 28l1 290q0 71 -7.5 119t-27 82t-53.5 57.5t-86 44.5l-176 -143l-178 143q-50 -20 -84.5 -43t-55.5 -53t-30.5 -68.5t-9.5 -89.5q0 -69 10.5 -132 t25 -131t28 -145.5t19.5 -174.5q15 15 38.5 35t49.5 42t53 45.5t49.5 46t38 43t18.5 37.5q-85 7 -131 56.5t-46 133.5q0 90 53 140.5t150 50.5q100 0 152.5 -54.5t52.5 -157.5q0 -54 -13 -98t-36.5 -82t-56 -72.5t-71.5 -69.5q-37 -33 -81.5 -69t-85.5 -69.5t-74.5 -61.5 t-49.5 -46h-175v119q0 81 -6 143.5t-15.5 113.5t-20.5 93t-20.5 83t-15.5 83.5t-6 93.5q0 83 17.5 147.5t58 114.5t107.5 87t165 65l176 -146l176 146q103 -29 169.5 -67.5t104.5 -91.5t52.5 -123.5t14.5 -164.5v-298q102 -14 189.5 -67.5t152.5 -133.5v929h168v-1126z" />
<glyph unicode="&#xe13;" horiz-adv-x="1948" d="M466 172q0 42 -26.5 67t-70.5 25q-42 0 -68.5 -25t-26.5 -67q0 -44 26.5 -69.5t68.5 -25.5q44 0 70.5 25.5t26.5 69.5zM1649 1126v-732q70 -8 119 -28t80 -49t45 -66t14 -79q0 -90 -54 -140t-162 -50q-58 0 -98.5 14.5t-65 43t-35.5 71.5t-11 100v68q-50 -10 -101.5 -36 t-99 -63.5t-89.5 -83.5t-72 -96h-169v684q0 76 -19 136.5t-58 103t-99 65t-143 22.5q-79 0 -136.5 -17.5t-96.5 -46t-61.5 -64.5t-31.5 -72q40 -6 78 -20t70.5 -32t57.5 -38.5t40 -38.5v-57q-57 -12 -98.5 -30t-67.5 -45.5t-38.5 -66.5t-12.5 -92v-33q5 2 18.5 3t26.5 1 q93 0 143.5 -49.5t50.5 -140.5q0 -90 -52.5 -140t-149.5 -50q-99 0 -152 50t-53 140v221q0 53 12 95t38.5 73.5t68.5 53t102 34.5q-25 21 -61.5 36t-74 25t-70 14.5t-48.5 4.5q4 92 37.5 169t96.5 132.5t154.5 86t209.5 30.5q134 0 227 -33.5t150.5 -93.5t83.5 -143t26 -181 v-499q32 40 74 72t89 56t98 40t102 23v738h168zM1790 172q0 47 -33.5 77.5t-107.5 41.5v-113q0 -45 15 -68.5t53 -23.5q32 0 52.5 21.5t20.5 64.5z" />
<glyph unicode="&#xe14;" horiz-adv-x="1319" d="M730 569q0 45 -26.5 69.5t-70.5 24.5q-41 0 -68 -24.5t-27 -69.5q0 -42 27 -67.5t68 -25.5q44 0 70.5 25.5t26.5 67.5zM609 379q-85 7 -131 56.5t-46 133.5q0 90 53 140.5t150 50.5q100 0 152.5 -54.5t52.5 -157.5q0 -54 -13 -98t-36.5 -82t-56 -72.5t-71.5 -69.5 q-37 -33 -81.5 -66t-85.5 -62.5t-74.5 -54.5t-49.5 -43h-175v119q0 81 -6 143.5t-15.5 113.5t-20.5 93t-20.5 83t-15.5 83.5t-6 93.5q0 94 36 171t104 132t165.5 85t220.5 30q140 0 238 -33.5t160 -93.5t90 -143t28 -181v-696h-168v684q0 76 -21.5 136.5t-65 103t-109 65 t-152.5 22.5q-84 0 -150.5 -19.5t-113 -55.5t-71.5 -87.5t-25 -115.5q0 -69 10.5 -132t25 -131t28 -145.5t19.5 -174.5q23 23 62.5 52t78.5 60t70 61.5t36 55.5z" />
<glyph unicode="&#xe15;" horiz-adv-x="1319" d="M730 589q0 45 -26.5 69.5t-70.5 24.5q-41 0 -68 -24.5t-27 -69.5q0 -42 27 -67.5t68 -25.5q44 0 70.5 25.5t26.5 67.5zM113 729q0 83 17.5 147.5t58 114.5t107.5 87t165 65l176 -146l176 146q103 -29 169 -67.5t104.5 -91.5t53.5 -123.5t15 -164.5v-696h-168v684 q0 71 -7.5 119t-27 82t-53.5 57.5t-86 44.5l-176 -143l-178 143q-50 -20 -84.5 -43t-55.5 -53t-30.5 -68.5t-9.5 -89.5q0 -69 10.5 -132t25 -131t28 -145.5t19.5 -174.5q15 15 38.5 35t49.5 42t53 45.5t49.5 46t38 43t18.5 37.5q-85 7 -131 56.5t-46 133.5q0 90 53 140.5 t150 50.5q100 0 152.5 -54.5t52.5 -157.5q0 -54 -13 -98t-36.5 -82t-56 -72.5t-71.5 -69.5q-37 -33 -81.5 -69t-85.5 -69.5t-74.5 -61.5t-49.5 -46h-175v119q0 81 -6 143.5t-15.5 113.5t-20.5 93t-20.5 83t-15.5 83.5t-6 93.5z" />
<glyph unicode="&#xe16;" horiz-adv-x="1319" d="M466 172q0 42 -26.5 67t-70.5 25q-42 0 -68.5 -25t-26.5 -67q0 -44 26.5 -69.5t68.5 -25.5q44 0 70.5 25.5t26.5 69.5zM133 729q4 92 39 169t100 132.5t159.5 86t217.5 30.5q140 0 236.5 -33.5t156.5 -93.5t86.5 -143t26.5 -181v-696h-168v684q0 76 -20 136.5t-61.5 103 t-105 65t-151.5 22.5q-84 0 -144 -17.5t-101.5 -46t-65 -64.5t-33.5 -72q40 -6 78 -20t70.5 -32t57.5 -38.5t40 -38.5v-57q-57 -12 -98.5 -30t-67.5 -45.5t-38.5 -66.5t-12.5 -92v-33q5 2 21 3t28 1q90 0 140 -49.5t50 -140.5q0 -90 -52.5 -140t-149.5 -50q-99 0 -152 50 t-53 140v221q0 53 12 95t38.5 73.5t68.5 53t102 34.5q-25 21 -61.5 36t-74 25t-70 14.5t-48.5 4.5z" />
<glyph unicode="&#xe17;" horiz-adv-x="1417" d="M284 0v760q-5 -2 -20.5 -3t-28.5 -1q-89 0 -139.5 49.5t-50.5 140.5q0 90 53 140.5t150 50.5q99 0 151.5 -50.5t52.5 -140.5v-796l369 774q30 65 58 108t58 68.5t64.5 36t77.5 10.5q85 0 129.5 -59t44.5 -180v-908h-168v925q0 45 -9.5 65t-26.5 20t-39 -28.5t-56 -100.5 l-419 -881h-251zM153 946q0 -42 26 -67.5t71 -25.5q41 0 68 25.5t27 67.5q0 44 -27 69t-68 25q-45 0 -71 -25t-26 -69z" />
<glyph unicode="&#xe18;" horiz-adv-x="1174" d="M863 410q0 119 -63 181.5t-198 62.5h-479q0 129 19 219t63.5 146.5t118 82t183.5 25.5h530v-133h-545q-43 0 -80 -14t-63 -40t-41 -64.5t-15 -88.5h343q107 0 182 -20.5t122 -67t69 -121t22 -181.5v-43q0 -79 -22 -144.5t-65.5 -112t-108.5 -72t-151 -25.5h-520v449h168 v-305h287q62 0 108 11t76 37.5t45 71.5t15 113v33z" />
<glyph unicode="&#xe19;" horiz-adv-x="1281" d="M153 946q0 -42 26 -67.5t71 -25.5q41 0 68 25.5t27 67.5q0 44 -27 69t-68 25q-45 0 -71 -25t-26 -69zM982 1126v-732q70 -8 119 -28t80 -49t45 -66t14 -79q0 -90 -54 -140t-162 -50q-58 0 -98.5 14.5t-65 43t-35.5 71.5t-11 100v68q-50 -10 -101.5 -36t-99 -63.5 t-89.5 -83.5t-72 -96h-168v760q-5 -2 -20.5 -3t-28.5 -1q-89 0 -139.5 49.5t-50.5 140.5q0 90 53 140.5t150 50.5q99 0 151.5 -50.5t52.5 -140.5v-749q32 40 73.5 72t89 56t98 40t101.5 23v738h168zM1123 172q0 47 -33.5 77.5t-107.5 41.5v-113q0 -45 15 -68.5t53 -23.5 q32 0 52.5 21.5t20.5 64.5z" />
<glyph unicode="&#xe1a;" horiz-adv-x="1305" d="M111 135h173v625q-5 -2 -20.5 -3t-28.5 -1q-89 0 -139.5 49.5t-50.5 140.5q0 90 53 140.5t150 50.5q99 0 151.5 -50.5t52.5 -140.5v-811h278q125 0 184 59t59 195v737h168v-772q0 -79 -22 -144.5t-65.5 -112t-108.5 -72t-151 -25.5h-683v135zM153 946q0 -42 26 -67.5 t71 -25.5q41 0 68 25.5t27 67.5q0 44 -27 69t-68 25q-45 0 -71 -25t-26 -69z" />
<glyph unicode="&#xe1b;" horiz-adv-x="1305" d="M111 135h173v625q-5 -2 -20.5 -3t-28.5 -1q-89 0 -139.5 49.5t-50.5 140.5q0 90 53 140.5t150 50.5q99 0 151.5 -50.5t52.5 -140.5v-811h278q125 0 184 59t59 195v1301h168v-1336q0 -79 -22 -144.5t-65.5 -112t-108.5 -72t-151 -25.5h-683v135zM153 946q0 -42 26 -67.5 t71 -25.5q41 0 68 25.5t27 67.5q0 44 -27 69t-68 25q-45 0 -71 -25t-26 -69z" />
<glyph unicode="&#xe1c;" horiz-adv-x="1343" d="M184 946q0 90 53 140.5t152 50.5q97 0 150 -50.5t53 -140.5q0 -91 -50.5 -140.5t-140.5 -49.5q-12 0 -28 1t-21 3v-541l271 385h98l270 -385v907h168v-1126h-162l-325 464l-325 -464h-163v946zM484 946q0 44 -26.5 69t-70.5 25q-41 0 -68 -25t-27 -69q0 -42 27 -67.5 t68 -25.5q44 0 70.5 25.5t26.5 67.5z" />
<glyph unicode="&#xe1d;" horiz-adv-x="1343" d="M184 946q0 90 53 140.5t152 50.5q97 0 150 -50.5t53 -140.5q0 -91 -50.5 -140.5t-140.5 -49.5q-12 0 -28 1t-21 3v-541l271 385h98l270 -385v1471h168v-1690h-162l-325 464l-325 -464h-163v946zM484 946q0 44 -26.5 69t-70.5 25q-41 0 -68 -25t-27 -69q0 -42 27 -67.5 t68 -25.5q44 0 70.5 25.5t26.5 67.5z" />
<glyph unicode="&#xe1e;" horiz-adv-x="1433" d="M284 0v760q-5 -2 -20.5 -3t-28.5 -1q-89 0 -139.5 49.5t-50.5 140.5q0 90 53 140.5t150 50.5q99 0 151.5 -50.5t52.5 -140.5v-691l262 861h105l262 -861v871h168v-1126h-200l-282 927l-283 -927h-200zM153 946q0 -42 26 -67.5t71 -25.5q41 0 68 25.5t27 67.5q0 44 -27 69 t-68 25q-45 0 -71 -25t-26 -69z" />
<glyph unicode="&#xe1f;" horiz-adv-x="1433" d="M284 0v760q-5 -2 -20.5 -3t-28.5 -1q-89 0 -139.5 49.5t-50.5 140.5q0 90 53 140.5t150 50.5q99 0 151.5 -50.5t52.5 -140.5v-691l262 861h105l262 -861v1435h168v-1690h-200l-282 927l-283 -927h-200zM153 946q0 -42 26 -67.5t71 -25.5q41 0 68 25.5t27 67.5 q0 44 -27 69t-68 25q-45 0 -71 -25t-26 -69z" />
<glyph unicode="&#xe20;" horiz-adv-x="1315" d="M153 172q0 -44 26.5 -69.5t70.5 -25.5q41 0 68 25.5t27 69.5q0 42 -27 67t-68 25q-44 0 -70.5 -25t-26.5 -67zM361 811q48 -6 96 -20t89.5 -32t73.5 -38.5t50 -38.5v-57q-58 -12 -99 -30t-67 -45.5t-38.5 -66.5t-12.5 -92v-219q0 -90 -53 -140t-152 -50q-97 0 -150 50 t-53 140q0 91 51 140.5t144 49.5q12 0 26 -1t19 -3v35q0 53 12 95t38 73.5t68 53t102 34.5q-31 21 -76 36t-91 25t-86.5 14.5t-61.5 4.5q4 92 34 169t88.5 132.5t146 86t205.5 30.5q134 0 227 -33.5t151 -93.5t83.5 -143t25.5 -181v-696h-168v684q0 76 -19 136.5t-58 103 t-99 65t-143 22.5q-79 0 -133 -17.5t-88.5 -46t-53.5 -64.5t-28 -72z" />
<glyph unicode="&#xe21;" horiz-adv-x="1225" d="M212 946q0 -42 26 -67.5t71 -25.5q41 0 68 25.5t27 67.5q0 44 -27 69t-68 25q-45 0 -71 -25t-26 -69zM1041 1126v-1126h-168q-30 50 -72 96t-89.5 83.5t-99 63.5t-101.5 36v-68q0 -114 -51.5 -171.5t-168.5 -57.5q-108 0 -162 50t-54 140q0 42 15.5 79t48.5 66t83.5 49 t120.5 28v366q-5 -2 -20.5 -3t-28.5 -1q-89 0 -139.5 49.5t-50.5 140.5q0 90 53 140.5t150 50.5q99 0 151.5 -50.5t52.5 -140.5v-558q51 -7 101.5 -23t98 -40t89 -56t73.5 -72v929h168zM192 172q0 -43 20.5 -64.5t52.5 -21.5q38 0 58 23.5t20 68.5v113q-74 -11 -112.5 -41.5 t-38.5 -77.5z" />
<glyph unicode="&#xe22;" horiz-adv-x="1301" d="M331 135h396q125 0 184 59t59 195v737h168v-772q0 -79 -22 -144.5t-65.5 -112t-108.5 -72t-151 -25.5h-628v311q0 47 16.5 83.5t44 63t62.5 43.5t72 24q-37 7 -72 25.5t-62.5 47t-44 67t-16.5 85.5v196q0 90 53 140.5t152 50.5q97 0 150 -50.5t53 -140.5 q0 -91 -50.5 -140.5t-140.5 -49.5q-12 0 -28 1t-21 3v-21q0 -43 18.5 -72.5t48 -48t66 -28.5t72.5 -14v-101q-36 -4 -72.5 -15t-66 -31t-48 -49.5t-18.5 -70.5v-174zM463 946q0 44 -26.5 69t-70.5 25q-41 0 -68 -25t-27 -69q0 -42 27 -67.5t68 -25.5q44 0 70.5 25.5 t26.5 67.5z" />
<glyph unicode="&#xe23;" horiz-adv-x="1034" d="M561 172q0 -44 26.5 -69.5t70.5 -25.5q41 0 68 25.5t27 69.5q0 42 -27 67t-68 25q-44 0 -70.5 -25t-26.5 -67zM693 450q0 119 -63 181.5t-198 62.5h-357q0 128 19 211.5t63.5 133t118 69t183.5 19.5h530v-133h-545q-43 0 -80 -10.5t-63 -31t-41 -52t-15 -73.5h221 q107 0 182 -20.5t122 -67t69 -121t22 -181.5v-265q0 -90 -53 -140t-151 -50q-97 0 -150.5 50t-53.5 140q0 91 50.5 141t139.5 50q13 0 29 -1t21 -3v91z" />
<glyph unicode="&#xe24;" horiz-adv-x="1319" d="M466 172q0 42 -26.5 67t-70.5 25q-42 0 -68.5 -25t-26.5 -67q0 -44 26.5 -69.5t68.5 -25.5q44 0 70.5 25.5t26.5 69.5zM133 729q4 92 39 169t100 132.5t159.5 86t217.5 30.5q140 0 236.5 -33.5t156.5 -93.5t86.5 -143t26.5 -181v-1216h-168v1204q0 76 -20 136.5 t-61.5 103t-105 65t-151.5 22.5q-84 0 -144 -17.5t-101.5 -46t-65 -64.5t-33.5 -72q40 -6 78 -20t70.5 -32t57.5 -38.5t40 -38.5v-57q-57 -12 -98.5 -30t-67.5 -45.5t-38.5 -66.5t-12.5 -92v-33q5 2 21 3t28 1q90 0 140 -49.5t50 -140.5q0 -90 -52.5 -140t-149.5 -50 q-99 0 -152 50t-53 140v221q0 53 12 95t38.5 73.5t68.5 53t102 34.5q-25 21 -61.5 36t-74 25t-70 14.5t-48.5 4.5z" />
<glyph unicode="&#xe25;" horiz-adv-x="1284" d="M443 172q0 42 -26.5 67t-70.5 25q-42 0 -68.5 -25t-26.5 -67q0 -44 26.5 -69.5t68.5 -25.5q44 0 70.5 25.5t26.5 69.5zM1120 0h-160q-37 111 -87.5 208.5t-110 170t-126.5 114.5t-138 42q-41 0 -75.5 -9t-59 -27t-38.5 -45t-14 -63v-33q5 2 21 3t28 1q90 0 140 -49.5 t50 -140.5q0 -90 -52.5 -140t-149.5 -50q-99 0 -152 50t-53 140v221q0 61 18.5 112t57.5 88.5t99.5 58.5t144.5 21q92 0 170 -35t140 -91t107.5 -127t71.5 -143v388q0 87 -25.5 151.5t-71.5 107.5t-111 64t-143 21q-126 0 -226 -33t-187 -91l-78 123q92 64 212 101.5 t278 37.5q127 0 224 -32t163 -92.5t99.5 -148t33.5 -198.5v-676z" />
<glyph unicode="&#xe26;" horiz-adv-x="1315" d="M153 172q0 -44 26.5 -69.5t70.5 -25.5q41 0 68 25.5t27 69.5q0 42 -27 67t-68 25q-44 0 -70.5 -25t-26.5 -67zM371 811q48 -6 94 -20t85.5 -32t70.5 -38.5t49 -38.5v-57q-58 -12 -99 -30t-67 -45.5t-38.5 -66.5t-12.5 -92v-219q0 -90 -53 -140t-152 -50q-97 0 -150 50 t-53 140q0 91 51 140.5t144 49.5q12 0 26 -1t19 -3v35q0 53 9 95t31.5 73.5t61 53t98.5 34.5q-31 21 -73 36t-84.5 25t-79.5 14.5t-58 4.5q4 92 34 169t88 132.5t145.5 86t205.5 30.5q135 0 228 -33.5t150.5 -93.5t83.5 -143t26 -181v-1216h-168v1204q0 152 -76.5 234.5 t-243.5 82.5q-79 0 -131 -16t-85 -43t-50 -61t-26 -70z" />
<glyph unicode="&#xe27;" horiz-adv-x="994" d="M530 172q0 -44 26.5 -69.5t70.5 -25.5q41 0 68 25.5t27 69.5q0 42 -27 67t-68 25q-44 0 -70.5 -25t-26.5 -67zM422 172q0 91 50.5 141t139.5 50q13 0 29 -1t21 -3v360q0 63 -15 116t-45.5 92t-77 60.5t-109.5 21.5q-86 0 -171.5 -31t-163.5 -87l-80 117q85 62 187 100.5 t227 38.5q100 0 177.5 -29t130.5 -83t80.5 -131t27.5 -173v-559q0 -90 -53 -140t-152 -50q-97 0 -150 50t-53 140z" />
<glyph unicode="&#xe28;" horiz-adv-x="1319" d="M1125 877q14 -37 22 -85t8 -96v-696h-168v684q0 25 -2.5 48t-7.5 45q-75 -36 -174 -72q49 -51 49 -136q0 -91 -52 -140.5t-151 -49.5q-45 0 -82.5 17t-56.5 40q-10 -11 -33.5 -39.5t-48 -75t-43.5 -111t-20 -145.5v-24v-41h-168v119q0 81 -6 143.5t-15.5 113.5t-20.5 93 t-20.5 83t-15.5 83.5t-6 93.5q0 94 36 171t104 132t165.5 85t220.5 30q153 0 255 -39.5t163 -109.5q25 23 61.5 72t77.5 137h188q-29 -63 -63 -116.5t-69 -95.5t-68 -72t-59 -46zM938 876q-41 65 -115.5 100t-183.5 35q-84 0 -150.5 -19.5t-113 -55.5t-71.5 -87.5 t-25 -115.5q0 -47 5 -90.5t13.5 -88t18.5 -90.5t19 -97q24 83 53 155t66.5 125t85 83t109.5 30q12 0 23 -1t22 -3q78 32 138.5 61t105.5 59zM744 569q0 45 -26.5 69.5t-70.5 24.5q-41 0 -68 -24.5t-27 -69.5q0 -42 27 -67.5t68 -25.5q44 0 70.5 25.5t26.5 67.5z" />
<glyph unicode="&#xe29;" horiz-adv-x="1407" d="M773 395q-66 0 -113 15t-77 41.5t-44 63.5t-14 81q0 80 50.5 126t136.5 46q88 0 136.5 -44.5t48.5 -116.5q0 -42 -14.5 -67.5t-29.5 -38.5q60 13 120 44v581h168v-446q63 78 94 183h157q-40 -108 -103.5 -195.5t-147.5 -150.5v-163q0 -79 -22 -144.5t-65.5 -112 t-108.5 -72t-151 -25.5h-683v135h173v625q-5 -2 -20.5 -3t-28.5 -1q-89 0 -139.5 49.5t-50.5 140.5q0 90 53 140.5t150 50.5q99 0 151.5 -50.5t52.5 -140.5v-811h278q125 0 184 59t59 195v39q-94 -33 -200 -33zM153 946q0 -42 26 -67.5t71 -25.5q41 0 68 25.5t27 67.5 q0 44 -27 69t-68 25q-45 0 -71 -25t-26 -69zM634 595q0 -34 21.5 -54.5t56.5 -20.5q33 0 54.5 20.5t21.5 54.5q0 35 -21.5 55.5t-54.5 20.5q-35 0 -56.5 -20.5t-21.5 -55.5z" />
<glyph unicode="&#xe2a;" horiz-adv-x="1285" d="M1120 0h-160q-37 111 -87.5 208.5t-110 170t-126.5 114.5t-138 42q-41 0 -75.5 -9t-59 -27t-38.5 -45t-14 -63v-33q5 2 21 3t28 1q90 0 140 -49.5t50 -140.5q0 -90 -52.5 -140t-149.5 -50q-99 0 -152 50t-53 140v221q0 61 18.5 112t57.5 88.5t99.5 58.5t144.5 21 q20 0 39.5 -2t38.5 -5q129 45 220.5 88t151.5 91q-42 83 -122.5 123.5t-189.5 40.5q-126 0 -226 -33t-187 -91l-78 123q92 64 212 101.5t278 37.5q147 0 253 -42t171 -122q32 71 32 169v55h168v-43q0 -93 -27.5 -173t-98.5 -151q11 -37 16.5 -78t5.5 -86v-676zM677 616 q50 -28 92 -66t77 -82.5t61.5 -93t44.5 -97.5v388q0 17 -1 33t-3 32q-54 -31 -121.5 -59t-149.5 -55zM443 172q0 42 -26.5 67t-70.5 25q-42 0 -68.5 -25t-26.5 -67q0 -44 26.5 -69.5t68.5 -25.5q44 0 70.5 25.5t26.5 69.5z" />
<glyph unicode="&#xe2b;" horiz-adv-x="1320" d="M153 946q0 -42 26 -67.5t71 -25.5q41 0 68 25.5t27 67.5q0 44 -27 69t-68 25q-45 0 -71 -25t-26 -69zM1146 0h-168v501q0 72 -12.5 120t-29.5 62q-72 -62 -143.5 -132.5t-135.5 -154t-117 -181.5t-88 -215h-168v760q-5 -2 -20.5 -3t-28.5 -1q-89 0 -139.5 49.5 t-50.5 140.5q0 90 53 140.5t150 50.5q99 0 151.5 -50.5t52.5 -140.5v-638q31 62 77.5 125.5t101 122t113 110.5t112.5 91q-23 17 -44.5 37.5t-38 45t-26.5 52.5t-10 60q0 45 14.5 79.5t41 58t64 35.5t83.5 12q45 0 83 -11.5t65.5 -34.5t43 -57t15.5 -79q0 -57 -28.5 -100 t-75.5 -81q33 -30 53.5 -60.5t31.5 -64t14.5 -70.5t3.5 -79v-500zM1017 952q0 39 -20.5 60.5t-56.5 21.5q-38 0 -57 -22t-19 -58q0 -18 7 -34.5t19 -30.5t27.5 -25.5t31.5 -20.5q26 18 47 44t21 65z" />
<glyph unicode="&#xe2c;" horiz-adv-x="1379" d="M284 0v760q-5 -2 -20.5 -3t-28.5 -1q-89 0 -139.5 49.5t-50.5 140.5q0 90 53 140.5t150 50.5q99 0 151.5 -50.5t52.5 -140.5v-691l262 861h105l262 -861v815q-100 13 -152.5 66.5t-52.5 131.5q0 80 50.5 126t136.5 46q88 0 136.5 -44.5t48.5 -116.5q0 -42 -14.5 -67.5 t-29.5 -38.5q41 17 74 38.5t58.5 51.5t44 69.5t29.5 91.5h147q-15 -67 -41 -124t-63.5 -101t-88 -75t-115.5 -45v-1079h-200l-282 927l-283 -927h-200zM153 946q0 -42 26 -67.5t71 -25.5q41 0 68 25.5t27 67.5q0 44 -27 69t-68 25q-45 0 -71 -25t-26 -69zM985 1267 q0 -34 21.5 -54.5t56.5 -20.5q33 0 54.5 20.5t21.5 54.5q0 35 -21.5 55.5t-54.5 20.5q-35 0 -56.5 -20.5t-21.5 -55.5z" />
<glyph unicode="&#xe2d;" horiz-adv-x="1209" d="M464 558q0 44 -26.5 69t-70.5 25q-42 0 -68.5 -25t-26.5 -69q0 -42 26.5 -67.5t68.5 -25.5q44 0 70.5 25.5t26.5 67.5zM1045 272q0 -68 -13.5 -119t-44.5 -85t-81 -51t-123 -17h-357q-73 0 -123 17t-81 51t-44.5 85t-13.5 119v286q0 90 53 140t152 50q97 0 149.5 -50 t52.5 -140q0 -91 -50 -140.5t-140 -49.5q-12 0 -28 1t-21 3v-114q0 -69 22 -96t64 -27h373q42 0 64 27t22 96v461q0 63 -20 116t-59.5 91.5t-98.5 60t-137 21.5q-93 0 -187.5 -33t-181.5 -91l-78 124q91 61 200 100t247 39q113 0 202.5 -29.5t152 -84t95.5 -131t33 -171.5 v-459z" />
<glyph unicode="&#xe2e;" horiz-adv-x="1195" d="M1026 272q0 -68 -13.5 -119t-44.5 -85t-81 -51t-123 -17h-357q-73 0 -123 17t-81 51t-44.5 85t-13.5 119v193q0 90 53 140t152 50q97 0 149.5 -50t52.5 -140q0 -91 -50 -140.5t-140 -49.5q-12 0 -28 1t-21 3v-21q0 -69 22 -96t64 -27h373q42 0 64 27t22 96v518 q0 8 -0.5 14.5t-1.5 13.5q-61 -33 -137 -51.5t-171 -18.5q-214 0 -318.5 49t-104.5 152q0 104 99 158t314 54q122 0 217 -24t159 -76q35 69 48 160h168q-20 -79 -50.5 -150t-77.5 -130q11 -30 17.5 -64.5t6.5 -74.5v-516zM538 1035q-67 0 -112.5 -8t-73.5 -21.5t-40.5 -31 t-12.5 -37.5q0 -21 12.5 -37t42 -27t77.5 -17t120 -6q165 0 265 77q-73 108 -278 108zM445 465q0 44 -26.5 69t-70.5 25q-42 0 -68.5 -25t-26.5 -69q0 -42 26.5 -67.5t68.5 -25.5q44 0 70.5 25.5t26.5 67.5z" />
<glyph unicode="&#xe2f;" horiz-adv-x="1107" d="M755 0v850q-82 -94 -195 -146.5t-255 -52.5q-66 0 -116 16t-83.5 44t-51 66t-17.5 82q0 80 50.5 126t136.5 46q88 0 136.5 -44.5t48.5 -116.5q0 -42 -14.5 -72.5t-29.5 -43.5q143 30 244.5 125.5t145.5 246.5h168v-1126h-168zM146 858q0 -34 21.5 -54.5t56.5 -20.5 q33 0 54.5 20.5t21.5 54.5q0 35 -21.5 55.5t-54.5 20.5q-35 0 -56.5 -20.5t-21.5 -55.5z" />
<glyph unicode="&#xe30;" horiz-adv-x="1001" d="M345 595q-66 0 -116 16t-83.5 44t-51 66t-17.5 82q0 80 50.5 126t136.5 46q88 0 136.5 -44.5t48.5 -116.5q0 -42 -14.5 -72.5t-29.5 -43.5q143 30 239.5 125.5t140.5 246.5h159q-31 -104 -85.5 -191t-130.5 -150t-172.5 -98.5t-210.5 -35.5zM186 802q0 -34 21.5 -54.5 t56.5 -20.5q33 0 54.5 20.5t21.5 54.5q0 35 -21.5 55.5t-54.5 20.5q-35 0 -56.5 -20.5t-21.5 -55.5zM345 101q-66 0 -116 16t-83.5 44t-51 66t-17.5 82q0 80 50.5 126t136.5 46q88 0 136.5 -44.5t48.5 -116.5q0 -42 -14.5 -72.5t-29.5 -43.5q143 30 239.5 125.5t140.5 246.5 h159q-31 -104 -85.5 -191t-130.5 -150t-172.5 -98.5t-210.5 -35.5zM186 308q0 -34 21.5 -54.5t56.5 -20.5q33 0 54.5 20.5t21.5 54.5q0 35 -21.5 55.5t-54.5 20.5q-35 0 -56.5 -20.5t-21.5 -55.5z" />
<glyph unicode="&#xe31;" d="M-390 1223q-62 0 -110.5 15t-81.5 41.5t-50 63.5t-17 81q0 80 50.5 126t136.5 46q88 0 136.5 -44.5t48.5 -116.5q0 -42 -14.5 -67.5t-29.5 -38.5q40 17 73.5 38.5t59 51.5t44 69.5t29.5 91.5h147q-18 -80 -51.5 -146t-85 -113t-122 -72.5t-163.5 -25.5zM-540 1423 q0 -34 21.5 -54.5t56.5 -20.5q33 0 54.5 20.5t21.5 54.5q0 35 -21.5 55.5t-54.5 20.5q-35 0 -56.5 -20.5t-21.5 -55.5z" />
<glyph unicode="&#xe32;" horiz-adv-x="994" d="M830 0h-168v729q0 63 -15 114.5t-45.5 88.5t-77 57t-109.5 20q-86 0 -173 -34t-165 -90l-77 123q85 62 187 100.5t227 38.5q100 0 177.5 -29t130.5 -83t80.5 -131t27.5 -173v-731z" />
<glyph unicode="&#xe33;" horiz-adv-x="994" d="M830 0h-168v729q0 63 -15 114.5t-45.5 88.5t-77 57t-109.5 20q-86 0 -173 -34t-165 -90l-77 123q85 62 187 100.5t227 38.5q100 0 177.5 -29t130.5 -83t80.5 -131t27.5 -173v-731zM-461 1402q0 81 47.5 126.5t135.5 45.5q89 0 137 -45.5t48 -126.5t-48 -126.5t-137 -45.5 q-88 0 -135.5 45.5t-47.5 126.5zM-363 1402q0 -38 24 -61t63 -23q36 0 60.5 23t24.5 61q0 39 -24.5 62t-60.5 23q-39 0 -63 -23t-24 -62z" />
<glyph unicode="&#xe34;" d="M-184 1206q-111 23 -215 41t-208.5 30.5t-213 19t-229.5 6.5q16 72 50 131t84 100.5t114.5 64.5t142.5 23q86 0 162.5 -25t138.5 -76t107 -129.5t67 -185.5zM-662 1522q-94 0 -154 -30.5t-89 -96.5q161 0 313 -22.5t280 -52.5q-21 46 -55.5 83t-80 63.5t-100 41 t-114.5 14.5z" />
<glyph unicode="&#xe35;" d="M-184 1206q-111 23 -215 41t-208.5 30.5t-213 19t-229.5 6.5q16 72 50 131t84 100.5t114.5 64.5t142.5 23q97 0 180.5 -31t149.5 -96v197h110v-368q11 -27 19.5 -56.5t15.5 -61.5zM-662 1522q-94 0 -154 -30.5t-89 -96.5q161 0 313 -22.5t280 -52.5q-21 46 -55.5 83 t-80 63.5t-100 41t-114.5 14.5z" />
<glyph unicode="&#xe36;" d="M-184 1206q-111 23 -215 41t-208.5 30.5t-213 19t-229.5 6.5q16 72 50 131t84 100.5t114.5 64.5t142.5 23q68 0 130 -15t116 -47q17 51 60 84t100 33q34 0 64.5 -13t53.5 -36t36 -53.5t13 -65.5q0 -31 -11 -59t-29.5 -50.5t-44.5 -37t-56 -19.5q14 -31 24.5 -65t18.5 -72 zM-662 1522q-94 0 -154 -30.5t-89 -96.5q161 0 313 -22.5t280 -52.5q-21 46 -55.5 83t-80 63.5t-100 41t-114.5 14.5zM-326 1509q0 -30 22 -51t53 -21q29 0 50.5 21t21.5 51q0 31 -21.5 53t-50.5 22q-31 0 -53 -22t-22 -53z" />
<glyph unicode="&#xe37;" d="M-184 1206q-111 23 -215 41t-208.5 30.5t-213 19t-229.5 6.5q16 72 50 131t84 100.5t114.5 64.5t142.5 23q62 0 123 -14v84h110v-125q56 -30 101 -77v202h110v-379q10 -25 17.5 -51.5t13.5 -55.5zM-662 1522q-94 0 -154 -30.5t-89 -96.5q161 0 313 -22.5t280 -52.5 q-21 46 -55.5 83t-80 63.5t-100 41t-114.5 14.5z" />
<glyph unicode="&#xe38;" d="M-307 -520v194q-8 -4 -22 -4q-58 0 -86 29.5t-28 83.5t29.5 84.5t98.5 30.5q63 0 99 -30.5t36 -86.5v-301h-127zM-368 -217q0 -21 12 -33t35 -12q20 0 32.5 12t12.5 33q0 23 -12.5 35t-32.5 12q-47 0 -47 -47z" />
<glyph unicode="&#xe39;" d="M-611 -524v198q-8 -4 -22 -4q-58 0 -86 29.5t-28 83.5t29.5 84.5t98.5 30.5q63 0 99 -30.5t36 -86.5v-174h177v276h127v-407h-431zM-672 -217q0 -21 12 -33t35 -12q20 0 32.5 12t12.5 33q0 23 -12.5 35t-32.5 12q-47 0 -47 -47z" />
<glyph unicode="&#xe3a;" d="M-375 -222q0 22 8 41t22.5 33t33.5 22.5t41 8.5t41 -8.5t33 -22.5t22.5 -33t8.5 -41t-8.5 -41t-22.5 -33.5t-33 -22.5t-41 -8t-41 8t-33.5 22.5t-22.5 33.5t-8 41z" />
<glyph unicode="&#xe3f;" horiz-adv-x="1128" d="M628 1599v-143q95 -9 165.5 -34t117 -69t70 -108.5t23.5 -152.5q0 -62 -19.5 -116t-56.5 -95t-91.5 -68.5t-123.5 -36.5v-10q69 -12 129.5 -34.5t105.5 -62t71 -99.5t26 -146q0 -94 -28 -169.5t-81 -129.5t-131 -86t-177 -38v-169h-140v168h-343v1462h343v137h140z M859 432q0 48 -12 90t-39 74t-71 54.5t-109 31.5v-522q64 9 108 32.5t71.5 58.5t39.5 81t12 100zM321 155h167v533h-167v-533zM321 840h167v466h-167v-466zM824 1079q0 95 -47.5 147.5t-148.5 70.5v-450q108 18 152 76.5t44 155.5z" />
<glyph unicode="&#xe40;" horiz-adv-x="628" d="M352 1125v-766q5 2 20.5 3t28.5 1q89 0 139.5 -49.5t50.5 -140.5q0 -90 -53 -140.5t-150 -50.5q-99 0 -151.5 50.5t-52.5 140.5v952h168zM483 173q0 42 -26 67t-71 25q-41 0 -68 -25t-27 -67q0 -44 27 -69.5t68 -25.5q45 0 71 25.5t26 69.5z" />
<glyph unicode="&#xe41;" horiz-adv-x="1166" d="M352 1125v-766q5 2 20.5 3t28.5 1q89 0 139.5 -49.5t50.5 -140.5q0 -90 -53 -140.5t-150 -50.5q-99 0 -151.5 50.5t-52.5 140.5v952h168zM483 173q0 42 -26 67t-71 25q-41 0 -68 -25t-27 -67q0 -44 27 -69.5t68 -25.5q45 0 71 25.5t26 69.5zM890 1125v-766q5 2 20.5 3 t28.5 1q89 0 139.5 -49.5t50.5 -140.5q0 -90 -53 -140.5t-150 -50.5q-99 0 -151.5 50.5t-52.5 140.5v952h168zM1021 173q0 42 -26 67t-71 25q-41 0 -68 -25t-27 -67q0 -44 27 -69.5t68 -25.5q45 0 71 25.5t26 69.5z" />
<glyph unicode="&#xe42;" horiz-adv-x="910" d="M730 173q0 42 -26 67t-71 25q-41 0 -68 -25t-27 -67q0 -44 27 -69.5t68 -25.5q45 0 71 25.5t26 69.5zM431 1366q0 119 -63 181.5t-198 62.5h-146q0 128 20.5 211.5t67 133t121.5 69t185 19.5h486v-133h-501q-43 0 -81.5 -10.5t-66.5 -31t-44.5 -52t-16.5 -73.5h10 q107 0 182 -20.5t122 -67t69 -121t22 -181.5v-994q5 2 20.5 3t28.5 1q89 0 139.5 -49.5t50.5 -140.5q0 -90 -53 -140.5t-150 -50.5q-99 0 -151.5 50.5t-52.5 140.5v1193z" />
<glyph unicode="&#xe43;" horiz-adv-x="921" d="M332 1627q0 34 -22 54t-57 20q-33 0 -54.5 -20t-21.5 -54q0 -35 21.5 -56t54.5 -21q35 0 57 21t22 56zM884 173q0 -90 -53 -140.5t-150 -50.5q-99 0 -151.5 50.5t-52.5 140.5v1271q0 59 9.5 105.5t30 85.5t53 71.5t79.5 63.5q0 26 -8.5 57t-33 58t-68.5 45t-116 18 q-67 0 -117 -16t-83 -43.5t-49.5 -65t-16.5 -80.5q19 23 50.5 38.5t68.5 15.5q32 0 61.5 -10t52 -31t35.5 -53t13 -76q0 -42 -14 -73.5t-38 -53t-57.5 -32.5t-72.5 -11q-57 0 -99 20t-69 56t-40.5 86t-13.5 110q0 68 21.5 129t68.5 107t121 73t178 27t180 -23.5t126 -63.5 t74 -94t24 -116q-51 -40 -86 -76t-56.5 -73.5t-30.5 -79.5t-9 -95v-1085q5 2 20.5 3t28.5 1q89 0 139.5 -49.5t50.5 -140.5zM776 173q0 42 -26 67t-71 25q-41 0 -68 -25t-27 -67q0 -44 27 -69.5t68 -25.5q45 0 71 25.5t26 69.5z" />
<glyph unicode="&#xe44;" horiz-adv-x="997" d="M243 1689l61 130q30 65 57.5 111.5t56.5 76.5t62.5 44t76.5 14q76 0 120 -55.5t44 -183.5v-1467q5 2 20.5 3t28.5 1q89 0 139.5 -49.5t50.5 -140.5q0 -90 -53 -140.5t-150 -50.5q-99 0 -151.5 50.5t-52.5 140.5v1660q0 55 -7.5 76.5t-24.5 21.5q-8 0 -16.5 -3.5 t-19 -15.5t-23.5 -34t-30 -59l-177 -358h-123l-97 604h155zM852 173q0 42 -26 67t-71 25q-41 0 -68 -25t-27 -67q0 -44 27 -69.5t68 -25.5q45 0 71 25.5t26 69.5z" />
<glyph unicode="&#xe45;" horiz-adv-x="994" d="M830 -520h-168v1249q0 63 -15 114.5t-45.5 88.5t-77 57t-109.5 20q-86 0 -173 -34t-165 -90l-77 123q85 62 187 100.5t227 38.5q100 0 177.5 -29t130.5 -83t80.5 -131t27.5 -173v-1251z" />
<glyph unicode="&#xe46;" horiz-adv-x="1014" d="M355 709q0 34 -22 54t-57 20q-33 0 -54.5 -20t-21.5 -54q0 -35 21.5 -56t54.5 -21q35 0 57 21t22 56zM682 831q0 21 -3.5 47.5t-14 52t-31 46t-55.5 28.5l-144 -127l-145 129q-37 -9 -58.5 -30.5t-33 -48.5t-14.5 -54.5t-3 -48.5q19 23 50.5 38.5t68.5 15.5 q32 0 61.5 -10t52 -31t35.5 -53t13 -76q0 -42 -14 -73.5t-38 -53t-57.5 -32.5t-72.5 -11q-57 0 -99 21t-69 57t-40.5 85t-13.5 105q0 57 13.5 111.5t43 100t75.5 78t110 44.5l135 -123l135 123q79 -10 133 -40t87 -72.5t47 -94t14 -105.5v-1349h-168v1351z" />
<glyph unicode="&#xe47;" d="M-230 1342q-49 0 -72.5 28.5t-23.5 64.5q0 35 23 62t71 27q109 0 109 -123q0 -32 -9.5 -64.5t-29 -58t-50 -41.5t-71.5 -16q-44 0 -81.5 16.5t-69 38.5t-57 43t-45.5 30q-23 -34 -50 -67t-53 -61q-50 6 -91 23.5t-70 46.5t-45 69.5t-16 92.5q0 105 64.5 156.5t173.5 51.5 h274q37 0 72.5 2t67 6.5t57 11t40.5 14.5v-99q-32 -20 -83 -26.5t-112 -6.5h-315q-33 0 -55.5 -9.5t-36 -24.5t-19.5 -35t-6 -41q0 -96 73 -119q25 19 50.5 55t49.5 76q39 -10 76 -34t71.5 -49t66 -43.5t60.5 -18.5q26 0 41.5 8t20.5 14zM-265 1433q0 -17 10.5 -27t28.5 -10 q16 0 26.5 10t10.5 27q0 18 -10.5 28.5t-26.5 10.5q-18 0 -28.5 -10.5t-10.5 -28.5z" />
<glyph unicode="&#xe48;" d="M-334 1583h134v-362h-134v362z" />
<glyph unicode="&#xe49;" d="M-441 1503q0 -62 -28.5 -108.5t-79.5 -77.5q105 1 170.5 20t102 60.5t49 106.5t12.5 157h128q0 -111 -13.5 -194t-60 -137.5t-137 -81.5t-244.5 -27h-111v98q19 13 40.5 29.5t40 34.5t30.5 36t12 34q-14 -18 -36.5 -29t-50.5 -11q-24 0 -45 7.5t-37 22.5t-25.5 38 t-9.5 55q0 61 37.5 93t94.5 32q42 0 72.5 -12.5t50 -34t29 -50.5t9.5 -61zM-653 1538q0 -22 15.5 -36.5t36.5 -14.5t36 14.5t15 36.5t-15 37t-36 15t-36.5 -15t-15.5 -37z" />
<glyph unicode="&#xe4a;" d="M-341 1445q0 -42 -10.5 -77.5t-17.5 -50.5q37 10 66 32.5t48.5 63t29.5 101.5t10 147h128q0 -111 -16.5 -194t-61.5 -137.5t-124 -81.5t-204 -27q13 25 22.5 52.5t16 54.5t9.5 52t3 44q0 15 -2.5 35t-10 39.5t-20.5 34.5t-33 20l-105 -92l-107 94q-27 -6 -42.5 -21 t-24 -33t-10.5 -37t-2 -35q14 18 37 29t50 11q24 0 45 -7.5t37 -23t25.5 -38.5t9.5 -54q0 -61 -37.5 -93t-94.5 -32q-42 0 -72 16t-50 43.5t-29.5 64t-9.5 77.5t10 80t31 71t54.5 55.5t80.5 32.5l99 -90l98 90q41 -9 73 -30t54.5 -50t34.5 -63.5t12 -72.5zM-676 1346 q0 22 -15 35t-38 13q-21 0 -35.5 -13t-14.5 -35q0 -24 14.5 -38t35.5 -14q23 0 38 14t15 38z" />
<glyph unicode="&#xe4b;" d="M-448 1352v100h131v131h100v-131h131v-100h-131v-131h-100v131h-131z" />
<glyph unicode="&#xe4c;" d="M-461 1384q0 -72 -48.5 -116.5t-136.5 -44.5q-86 0 -136.5 46t-50.5 126q0 44 15.5 77t50.5 57t93 39t142 22q111 10 180.5 22.5t109 30.5t55.5 43t22 58h147q-9 -54 -26.5 -94t-51.5 -67t-87.5 -43.5t-135.5 -24.5q-47 -4 -79.5 -7.5t-53.5 -6.5t-33.5 -5.5t-19.5 -5.5 q15 -13 29.5 -38.5t14.5 -67.5zM-732 1396q0 -39 23.5 -61.5t62.5 -22.5q36 0 60 22.5t24 61.5q0 38 -24 60.5t-60 22.5q-39 0 -62.5 -22.5t-23.5 -60.5z" />
<glyph unicode="&#xe4d;" d="M-461 1402q0 81 47.5 126.5t135.5 45.5q89 0 137 -45.5t48 -126.5t-48 -126.5t-137 -45.5q-88 0 -135.5 45.5t-47.5 126.5zM-363 1402q0 -38 24 -61t63 -23q36 0 60.5 23t24.5 61q0 39 -24.5 62t-60.5 23q-39 0 -63 -23t-24 -62z" />
<glyph unicode="&#xe4e;" d="M-194 1424q-42 0 -76.5 -1.5t-59.5 -7t-39 -17t-14 -31.5q0 -26 24.5 -40.5t74.5 -14.5q44 0 83.5 8.5t63.5 18.5v-93q-22 -8 -61.5 -16t-87.5 -8q-100 0 -154.5 36.5t-54.5 101.5q0 50 43.5 81t120.5 31q-13 4 -29 12.5t-29.5 21.5t-23 30.5t-9.5 40.5q0 34 16.5 57 t43.5 37.5t62 20.5t71 6q35 0 75 -8t68 -22l-34 -85q-15 8 -42.5 16t-65.5 8q-44 0 -66.5 -14.5t-22.5 -33.5q0 -32 32 -40.5t91 -8.5v-86z" />
<glyph unicode="&#xe4f;" horiz-adv-x="1318" d="M75 564q0 121 46 227t125.5 185.5t185.5 125.5t227 46t227 -46t185.5 -125.5t125.5 -185.5t46 -227t-46 -227t-125.5 -185.5t-185.5 -125.5t-227 -46t-227 46t-185.5 125.5t-125.5 185.5t-46 227zM219 564q0 -91 34.5 -171t94.5 -140t140 -94.5t171 -34.5t171 34.5 t140 94.5t94.5 140t34.5 171t-34.5 171t-94.5 140t-140 94.5t-171 34.5t-171 -34.5t-140 -94.5t-94.5 -140t-34.5 -171zM457 564q0 42 16 79t43 64.5t64 43.5t79 16t79 -16t64.5 -43.5t43.5 -64.5t16 -79t-16 -79t-43.5 -64t-64.5 -43t-79 -16t-79 16t-64 43t-43 64t-16 79z " />
<glyph unicode="&#xe50;" horiz-adv-x="1360" d="M678 113q83 0 153.5 22.5t122 66.5t80.5 108t29 147t-29 146.5t-80.5 106.5t-122 65.5t-153.5 22.5q-81 0 -151 -22.5t-121.5 -65.5t-80.5 -106.5t-29 -146.5t29 -147t80.5 -108t121.5 -66.5t151 -22.5zM678 -20q-124 0 -225 32.5t-172.5 94t-110.5 149.5t-39 199 q0 113 39 201t111 149t173 93t224 32q125 0 226.5 -32t173.5 -93t111 -149t39 -201q0 -111 -39 -199t-111 -149.5t-173.5 -94t-226.5 -32.5z" />
<glyph unicode="&#xe51;" horiz-adv-x="1360" d="M569 420q0 -34 22 -54t57 -20q33 0 54.5 20t21.5 54q0 35 -21.5 56t-54.5 21q-35 0 -57 -21t-22 -56zM1228 401q0 -74 -14.5 -135t-39 -110.5t-57 -89t-68.5 -71.5l-101 106q24 23 46 54t38.5 69.5t26.5 82t10 89.5q0 93 -31.5 167.5t-85 126.5t-124 80t-148.5 28 q-79 0 -149 -25.5t-123 -74t-84 -118.5t-31 -160q0 -78 21.5 -137t56 -98.5t79.5 -60t91 -20.5q47 0 84.5 15t63.5 42t40.5 63.5t14.5 79.5q-19 -23 -50.5 -38.5t-68.5 -15.5q-32 0 -61.5 10.5t-52 31.5t-35.5 53t-13 75q0 42 14 73.5t38 53t57.5 32.5t72.5 11q57 0 102 -20 t76 -56t47.5 -86t16.5 -110q0 -68 -22 -129t-65.5 -107t-108.5 -73t-150 -27q-90 0 -165 30t-129 87.5t-84.5 140.5t-30.5 188q0 108 38.5 200t109.5 159t172 105t227 38q122 0 223 -39t173.5 -109t112.5 -167t40 -214z" />
<glyph unicode="&#xe52;" horiz-adv-x="1360" d="M758 499q0 34 -22 54t-57 20q-33 0 -54.5 -20t-21.5 -54q0 -35 21.5 -56t54.5 -21q35 0 57 21t22 56zM159 1168h168v-779q0 -67 8.5 -115.5t31 -79t62.5 -45t102 -14.5h310q62 0 102 14.5t62.5 45t31 79t8.5 115.5v232q0 21 -2.5 47.5t-10 52t-19.5 46t-32 28.5 l-144 -127l-145 129q-37 -9 -58.5 -30.5t-33 -48.5t-14.5 -54.5t-3 -48.5q19 23 50.5 38.5t68.5 15.5q32 0 61.5 -10t52 -31t35.5 -53t13 -76q0 -42 -14 -73.5t-38 -53t-57.5 -32.5t-72.5 -11q-57 0 -100.5 21t-72.5 57t-44 85t-15 105q0 57 15 111.5t46.5 100t79 78 t111.5 44.5l135 -123l135 123q79 -10 126.5 -40t73 -72.5t33.5 -94t8 -105.5v-265q0 -79 -15.5 -144.5t-51.5 -112t-94.5 -72t-144.5 -25.5h-442q-86 0 -144.5 25.5t-94.5 72t-51.5 112t-15.5 144.5v814z" />
<glyph unicode="&#xe53;" horiz-adv-x="1360" d="M634 149q0 34 -22 54t-57 20q-33 0 -54.5 -20t-21.5 -54q0 -35 21.5 -56t54.5 -21q35 0 57 21t22 56zM1233 461q0 -86 -14.5 -158t-39.5 -130t-57.5 -102t-68.5 -76l-101 106q24 23 46 65t38.5 93.5t26 106t9.5 100.5q0 91 -11 154.5t-31 103t-48 57.5t-62 18 q-41 0 -70.5 -28t-48.5 -75t-28 -107.5t-9 -125.5v-35h-168v35q0 65 -9 125.5t-28 107.5t-48.5 75t-70.5 28q-34 0 -62 -18t-48 -57.5t-31 -103t-11 -154.5q0 -116 23 -195.5t65 -120.5q0 44 16 75.5t41.5 52.5t58 31t64.5 10q36 0 69 -10t58.5 -31t41 -53t15.5 -76 q0 -79 -51 -124.5t-156 -45.5q-78 0 -151.5 26.5t-130 84.5t-90.5 149.5t-34 221.5q0 129 20 218t57 145t90 81t120 25q64 0 110 -22t77.5 -60.5t50 -89.5t28.5 -110q10 59 29 110t50.5 89.5t77 60.5t109.5 22q67 0 120 -25t90 -81t57 -145t20 -218z" />
<glyph unicode="&#xe54;" horiz-adv-x="1360" d="M1199 0h-644q-113 0 -194 29.5t-132.5 81t-76 121.5t-24.5 151q0 104 32 183.5t97.5 139.5t165 102.5t234.5 72.5q111 25 187 58.5t123 71.5t67.5 78.5t20.5 78.5h173q0 -65 -30.5 -124.5t-90 -110.5t-146.5 -92t-201 -68q-122 -29 -209.5 -63t-143.5 -79.5t-82.5 -107 t-26.5 -145.5q0 -53 17 -97.5t54.5 -77t97.5 -50.5t145 -18h240q-100 48 -149 123t-49 163q0 48 14.5 89t42.5 71.5t69.5 48t95.5 17.5q39 0 72.5 -11t57.5 -32.5t38 -53t14 -73.5q0 -43 -13 -75t-35.5 -53t-52 -31.5t-61.5 -10.5q-37 0 -68.5 15.5t-50.5 38.5 q13 -40 52.5 -77.5t96.5 -68.5t127.5 -52t145.5 -28v-135zM952 477q0 35 -22 56t-57 21q-33 0 -54.5 -21t-21.5 -56q0 -34 21.5 -54t54.5 -20q35 0 57 20t22 54z" />
<glyph unicode="&#xe55;" horiz-adv-x="1360" d="M1199 0h-644q-113 0 -194 29.5t-132.5 81t-76 121.5t-24.5 151q0 83 21 151t63 122t106 96.5t151 74.5q-19 21 -29.5 50t-10.5 66q0 44 14 76t38.5 53t58.5 31t74 10q39 0 72.5 -11t57.5 -32.5t38 -53t14 -73.5v-12t-1 -11q70 26 119.5 56t80.5 62t45.5 65.5t14.5 64.5 h173q0 -65 -30.5 -124.5t-90 -110.5t-146.5 -92t-201 -68q-122 -29 -209.5 -63t-143.5 -79.5t-82.5 -107t-26.5 -145.5q0 -53 17 -97.5t54.5 -77t97.5 -50.5t145 -18h240q-100 48 -149 123t-49 163q0 48 14.5 89t42.5 71.5t69.5 48t95.5 17.5q39 0 72.5 -11t57.5 -32.5 t38 -53t14 -73.5q0 -43 -13 -75t-35.5 -53t-52 -31.5t-61.5 -10.5q-37 0 -68.5 15.5t-50.5 38.5q13 -40 52.5 -77.5t96.5 -68.5t127.5 -52t145.5 -28v-135zM952 477q0 35 -22 56t-57 21q-33 0 -54.5 -21t-21.5 -56q0 -34 21.5 -54t54.5 -20q35 0 57 20t22 54zM690 940 q0 35 -22 56t-57 21q-33 0 -54.5 -21t-21.5 -56q0 -34 21.5 -54t54.5 -20q35 0 57 20t22 54z" />
<glyph unicode="&#xe56;" horiz-adv-x="1360" d="M633 420q0 35 -22 56t-57 21q-33 0 -54.5 -21t-21.5 -56q0 -34 21.5 -54t54.5 -20q35 0 57 20t22 54zM301 1166q13 -30 27 -78t27 -99t23.5 -97.5t15.5 -74.5q19 11 49.5 25.5t70.5 27.5t87.5 21.5t100.5 8.5q104 0 193 -33t154.5 -94.5t103 -149t37.5 -195.5t-32 -191 t-91.5 -139.5t-143 -86t-185.5 -29.5q-98 0 -176.5 25t-133 70t-84 108.5t-29.5 140.5q0 60 16.5 109t47.5 83.5t76 53t102 18.5q39 0 72.5 -11t57.5 -32.5t38 -53t14 -73.5q0 -43 -13 -75t-35.5 -53t-52 -31.5t-61.5 -10.5q-37 0 -68.5 15.5t-50.5 38.5q0 -43 21 -79.5 t58 -63.5t86.5 -42t107.5 -15q67 0 122 22t94 62.5t60.5 99.5t21.5 132q0 90 -30.5 155.5t-80.5 108t-113.5 63.5t-130.5 21q-57 0 -109 -11t-96 -28.5t-79 -38.5t-60 -42q-10 30 -26 72t-35 90.5t-40.5 99.5t-42.5 98.5t-41 88.5t-36 69h192z" />
<glyph unicode="&#xe57;" horiz-adv-x="1360" d="M513 149q0 34 -22 54t-57 20q-33 0 -54.5 -20t-21.5 -54q0 -35 21.5 -56t54.5 -21q35 0 57 21t22 56zM446 541q0 53 -4 99.5t-15 82t-29 56t-47 20.5q-34 0 -55 -18t-32.5 -57.5t-15.5 -103t-4 -154.5q0 -60 1.5 -100.5t5.5 -67t9.5 -42.5t12.5 -27q23 46 66 68t96 22 q36 0 69 -10t58.5 -31t41 -53t15.5 -76q0 -79 -50 -124.5t-147 -45.5q-78 0 -141 26.5t-107 84.5t-67.5 149.5t-23.5 221.5q0 129 13 218t41.5 145t74.5 81t113 25q56 0 92.5 -17t58.5 -47t33 -71t17 -88q6 47 19.5 88t38.5 71t63.5 47t94.5 17q67 0 110.5 -25t69.5 -81 t36.5 -145t10.5 -218v-326q71 0 107 59.5t36 194.5v779h161v-814q0 -79 -14.5 -144.5t-49 -112t-92 -72t-143.5 -25.5h-166v466q0 91 -4 154.5t-14.5 103t-28 57.5t-45.5 18q-33 0 -54 -20.5t-33.5 -56t-17.5 -82t-5 -99.5h-160z" />
<glyph unicode="&#xe58;" horiz-adv-x="1360" d="M566 363q67 -15 126.5 -52.5t113.5 -77t104.5 -69.5t98.5 -30q49 0 82.5 39t42.5 110q-19 -23 -50.5 -38.5t-68.5 -15.5q-32 0 -61.5 10.5t-52 31.5t-35.5 53t-13 75q0 42 14 73.5t38 53t57.5 32.5t72.5 11q54 0 96 -18.5t70.5 -51t43 -76.5t14.5 -95q0 -81 -17.5 -144 t-49.5 -106t-77 -65.5t-99 -22.5q-38 0 -73.5 12t-68 31t-62 42t-56 44t-50.5 38t-45 24q-6 -26 -15 -54t-19 -54.5t-21 -49t-20 -37.5q-132 0 -223.5 31.5t-148 86t-81.5 126.5t-25 153q0 104 32 183.5t97.5 139.5t165 102.5t234.5 72.5q111 25 187 58.5t123 71.5 t67.5 78.5t20.5 78.5h173q0 -65 -30.5 -124.5t-90 -110.5t-146.5 -92t-201 -68q-122 -29 -209.5 -63t-143.5 -79.5t-82.5 -107t-26.5 -145.5q0 -53 18 -96.5t49 -74.5t72.5 -49t88.5 -20q12 19 22 45t17.5 56t12.5 62t8 62zM1114 399q0 34 -22 54t-57 20q-33 0 -54.5 -20 t-21.5 -54q0 -35 21.5 -56t54.5 -21q35 0 57 21t22 56z" />
<glyph unicode="&#xe59;" horiz-adv-x="1360" d="M1000 806q25 27 46 60t36.5 76.5t24 99t8.5 126.5h173q0 -98 -22 -180.5t-61.5 -150t-94.5 -120.5t-120 -93q-11 18 -31.5 43.5t-44.5 51.5t-48.5 49t-43.5 35q-14 -20 -31 -39.5t-35 -35.5q20 -32 36.5 -66.5t33.5 -68.5l279 -593h-188l-192 434q-37 84 -70 151.5 t-65.5 115t-66.5 73t-72 25.5q-40 0 -71.5 -18t-53 -57.5t-32.5 -103t-11 -154.5q0 -116 18 -195.5t60 -120.5q0 44 16 75.5t41.5 52.5t58 31t64.5 10q36 0 69 -10t58.5 -31t41 -53t15.5 -76q0 -79 -54 -124.5t-175 -45.5q-70 0 -137.5 26.5t-120 84.5t-84.5 149.5 t-32 221.5q0 129 25 218t68.5 145t103 81t128.5 25q75 0 131 -26.5t100 -71.5q16 12 33.5 27t33.5 32.5t29.5 36.5t20.5 39q35 -15 67 -35.5t58.5 -43t47 -44t32.5 -38.5zM619 149q0 34 -22 54t-57 20q-33 0 -54.5 -20t-21.5 -54q0 -35 21.5 -56t54.5 -21q35 0 57 21t22 56z " />
<glyph unicode="&#xe5a;" horiz-adv-x="1469" d="M755 0v850q-82 -94 -195 -146.5t-255 -52.5q-66 0 -116 16t-83.5 44t-51 66t-17.5 82q0 80 50.5 126t136.5 46q88 0 136.5 -44.5t48.5 -116.5q0 -42 -14.5 -72.5t-29.5 -43.5q143 30 244.5 125.5t145.5 246.5h168v-1126h-168zM1117 0v1126h168v-1126h-168zM146 858 q0 -34 21.5 -54.5t56.5 -20.5q33 0 54.5 20.5t21.5 54.5q0 35 -21.5 55.5t-54.5 20.5q-35 0 -56.5 -20.5t-21.5 -55.5z" />
<glyph unicode="&#xe5b;" horiz-adv-x="1875" d="M1799 515v-57l-238 -47l-113 -220h-16l-124 267l-148 -347h-18l-141 348q-16 -52 -38 -107.5t-51.5 -108.5t-67.5 -99.5t-86.5 -81.5t-108 -55.5t-132.5 -20.5q-111 0 -194 34.5t-137.5 95t-82 144t-27.5 181.5q0 94 23.5 177.5t70.5 145.5t117 98.5t163 36.5 q71 0 127 -23.5t94.5 -66t59 -101t20.5 -129.5q0 -61 -13.5 -113t-40.5 -89.5t-69 -58.5t-99 -21q-39 0 -72.5 11t-57.5 32.5t-38 53t-14 73.5q0 44 13 76t35.5 53t52 31t61.5 10q37 0 68.5 -15.5t50.5 -38.5q0 35 -10 68t-31 58.5t-54.5 40.5t-80.5 15q-61 0 -106 -25.5 t-73.5 -69.5t-42.5 -103.5t-14 -127.5q0 -69 17.5 -127.5t54 -101t93 -66.5t133.5 -24q87 0 154.5 35.5t122.5 110t99 189.5t84 275h23l158 -396l141 326h21l129 -279l95 183zM453 467q0 -35 22 -56t57 -21q33 0 54.5 21t21.5 56q0 34 -21.5 54t-54.5 20q-35 0 -57 -20 t-22 -54z" />
<glyph unicode="&#x2000;" horiz-adv-x="1032" />
<glyph unicode="&#x2001;" horiz-adv-x="2065" />
<glyph unicode="&#x2002;" horiz-adv-x="1032" />
<glyph unicode="&#x2003;" horiz-adv-x="2065" />
<glyph unicode="&#x2004;" horiz-adv-x="688" />
<glyph unicode="&#x2005;" horiz-adv-x="516" />
<glyph unicode="&#x2006;" horiz-adv-x="344" />
<glyph unicode="&#x2007;" horiz-adv-x="344" />
<glyph unicode="&#x2008;" horiz-adv-x="258" />
<glyph unicode="&#x2009;" horiz-adv-x="413" />
<glyph unicode="&#x200a;" horiz-adv-x="114" />
<glyph unicode="&#x200b;" />
<glyph unicode="&#x200c;" d="M-54 -339v1952h108v-1952h-108z" />
<glyph unicode="&#x200d;" d="M74 1323l225 -220l-75 -73l-170 169v-1537h-108v1537l-170 -169l-75 73l225 220l-225 217l75 73l224 -220l224 220l75 -74z" />
<glyph unicode="&#x202f;" horiz-adv-x="413" />
<glyph unicode="&#x205f;" horiz-adv-x="516" />
<glyph unicode="&#x2400;" />
<glyph unicode="&#x25cc;" horiz-adv-x="1217" d="M980 918q0 -50 -48 -50q-52 0 -52 50t52 50q48 0 48 -50zM832 1016q0 -49 -48 -49q-52 0 -52 49q0 51 52 51q48 0 48 -51zM1079 770q0 -51 -51 -51q-49 0 -49 51q0 49 51 49q49 0 49 -49zM1115 596q0 -50 -48 -50q-52 0 -52 50t52 50q48 0 48 -50zM658 1053 q0 -51 -50 -51t-50 51q0 49 50 49t50 -49zM485 1016q0 -49 -51 -49q-49 0 -49 49q0 51 49 51q51 0 51 -51zM1079 422q0 -49 -51 -49q-49 0 -49 49q0 51 49 51q51 0 51 -51zM337 918q0 -50 -50 -50t-50 47q0 53 50 53t50 -50zM980 272q0 -49 -48 -49q-52 0 -52 49q0 51 52 51 q48 0 48 -51zM832 174q0 -48 -48 -48q-52 0 -52 48q0 52 52 52q48 0 48 -52zM238 770q0 -51 -48 -51q-52 0 -52 51q0 49 50 49t50 -49zM202 596q0 -50 -48 -50q-52 0 -52 50t52 50q48 0 48 -50zM658 141q0 -51 -50 -51t-50 51q0 49 50 49t50 -49zM238 422q0 -49 -50 -49 t-50 49q0 51 50 51t50 -51zM485 178q0 -52 -51 -52q-49 0 -49 48q0 52 49 52q51 0 51 -48zM337 272q0 -49 -50 -49t-50 49q0 51 50 51t50 -51z" />
<glyph unicode="&#x25fc;" horiz-adv-x="500" d="M0 0v0v0v0v0z" />
<glyph unicode="&#xfeff;" />
<glyph horiz-adv-x="1792" d="M466 172q0 42 -26.5 67t-70.5 25q-42 0 -68.5 -25t-26.5 -67q0 -44 26.5 -69.5t68.5 -25.5q44 0 70.5 25.5t26.5 69.5zM950 0v684q0 76 -19 136.5t-58 103t-99 65t-143 22.5q-79 0 -136.5 -17.5t-96.5 -46t-61.5 -64.5t-31.5 -72q40 -6 78 -20t70.5 -32t57.5 -38.5 t40 -38.5v-57q-57 -12 -98.5 -30t-67.5 -45.5t-38.5 -66.5t-12.5 -92v-33q5 2 18.5 3t26.5 1q93 0 143.5 -49.5t50.5 -140.5q0 -90 -52.5 -140t-149.5 -50q-99 0 -152 50t-53 140v221q0 53 12 95t38.5 73.5t68.5 53t102 34.5q-25 21 -61.5 36t-74 25t-70 14.5t-48.5 4.5 q4 92 37.5 169t96.5 132.5t154.5 86t209.5 30.5q134 0 227 -33.5t151 -93.5t83.5 -143t25.5 -181v-561h98q125 0 184.5 59.5t59.5 194.5v737h168v-772q0 -79 -22 -144.5t-65.5 -112t-108 -72t-150.5 -25.5h-332z" />
<glyph horiz-adv-x="1141" d="M241 411q0 -43 26.5 -68t70.5 -25q42 0 68.5 25t26.5 68q0 44 -26.5 69t-68.5 25q-44 0 -70.5 -25t-26.5 -69zM830 450q0 119 -63 181.5t-198 62.5h-462q0 128 19 211.5t63.5 133t118 69t183.5 19.5h530v-133h-545q-43 0 -80 -10.5t-63 -31t-41 -52t-15 -73.5h326 q107 0 182 -20.5t122 -67t69 -121t22 -181.5v-185q0 -68 -13.5 -119t-44.5 -85t-81 -51t-123 -17q-68 0 -112 11.5t-75.5 39.5t-56.5 75t-56 117l-7 16q-17 -7 -45 -13t-48 -6q-99 0 -150.5 50t-51.5 141q0 89 52.5 139.5t149.5 50.5q52 0 87.5 -16t61 -46t44.5 -72.5 t39 -94.5l53 -142q21 -56 47.5 -86.5t69.5 -30.5q19 0 36 6.5t29.5 20.5t19.5 38t7 58v214z" />
<glyph d="M-1524 -155h1287v-131h-1287v131z" />
</font>
</defs>
</svg>
